<?xml version="1.0" standalone="yes"?>
<svg xmlns="http://www.w3.org/2000/svg" width="1024" height="1024">
<path style="fill:#fbfdfc; stroke:none;" d="M0 0L0 993C11.3572 993.866 7 1015.5 7 1024L1024 1024L1024 0L0 0z"/>
<path style="fill:#eba824; stroke:none;" d="M581.015 259.702C564.176 265.439 572.298 293.582 589.999 287.852C607.586 282.159 598.939 253.595 581.015 259.702M432 260L446 269C442.861 263.095 438.105 261.733 432 260M425 263L425 264L431 262L425 263z"/>
<path style="fill:#b8415e; stroke:none;" d="M431.001 261.899C414.646 263.974 418.595 290.607 435 288.796C453.144 286.793 448.462 259.683 431.001 261.899z"/>
<path style="fill:#eba824; stroke:none;" d="M423 265L424 266L423 265M422 266L423 267L422 266M440 266L441 267L440 266M421 268L422 269L421 268M443 269L441 272L444 273L443 269M420 270L420 273L421 273L420 270M446 270L447 271L446 270z"/>
<path style="fill:#b8415e; stroke:none;" d="M443 271L444 272L443 271z"/>
<path style="fill:#eba824; stroke:none;" d="M447 272L447 279L448 279L447 272M445 274L445 279L446 279L445 274M667 275.44C661.831 276.262 656.415 278.124 652 280.969C619.379 301.99 645.476 348.439 680 342.674C724.23 335.289 710.654 268.496 667 275.44M443 276L443 280L444 280L443 276M420 277L420 280L421 280L420 277M446.333 280.667L446.667 281.333L446.333 280.667z"/>
<path style="fill:#b8415e; stroke:none;" d="M574 280L575 281L574 280z"/>
<path style="fill:#eba824; stroke:none;" d="M421 281L422 282L421 281M440 281L441 282L440 281M443 281L440 285L443 281M445 282L446 283L445 282M422 283L423 284L422 283M444 283L445 284L444 283M325 284L325 285L328 288L329 288L325 284M423 284L424 285L423 284z"/>
<path style="fill:#b8415e; stroke:none;" d="M324 285L325 292L327 292L329 288L324 285z"/>
<path style="fill:#352fbf; stroke:none;" d="M325.667 285.333L326.333 285.667L325.667 285.333z"/>
<path style="fill:#eba824; stroke:none;" d="M442 285L443 286L442 285z"/>
<path style="fill:#352fbf; stroke:none;" d="M323 286L324 287L323 286M327 286L327 289L328 289L327 286z"/>
<path style="fill:#eba824; stroke:none;" d="M425 286L426 287L425 286M441 286L442 287L441 286M426 287L427 288L426 287M440 287L441 288L440 287M429 288L430 289L429 288M437 288L438 289L437 288M323 289L324 290L323 289M328 289L329 290L328 289z"/>
<path style="fill:#352fbf; stroke:none;" d="M326 290L327 291L326 290z"/>
<path style="fill:#fbfdfc; stroke:none;" d="M668.004 291.743C653.584 297.251 660.76 323.516 676 317.967C691.82 312.206 683.887 285.676 668.004 291.743z"/>
<path style="fill:#eba824; stroke:none;" d="M376.667 296.333L377.333 296.667L376.667 296.333z"/>
<path style="fill:#b8415e; stroke:none;" d="M373 307L372 309C374.871 310.397 378.528 312.65 381 310C388.599 308.54 385.918 297.761 378.996 296.877C373.431 296.167 368.351 302.931 373 307z"/>
<path style="fill:#eba824; stroke:none;" d="M379.667 296.333L380.333 296.667L379.667 296.333M382 297L383 298L382 297M372 298L373 299L372 298M383 298L384 299L383 298M384 299L385 300L384 299z"/>
<path style="fill:#b8415e; stroke:none;" d="M659.333 299.667L659.667 300.333L659.333 299.667z"/>
<path style="fill:#eba824; stroke:none;" d="M385.333 300.667L385.667 301.333L385.333 300.667M370 302L370 306L371 306L370 302M386 305L387 306L386 305M371 307L372 308L371 307z"/>
<path style="fill:#352fbf; stroke:none;" d="M372 307L373 308L372 307z"/>
<path style="fill:#eba824; stroke:none;" d="M385 307L386 308L385 307M501 309L501 310L512 310L512 311L508 311L508 312C511.644 314.091 512.107 315.919 512 320C516.81 320.802 523.74 325.042 523 328L530 328L530 329L528 329L528 330L544 330C548.481 335.208 564.214 335.614 571 338.192C590.469 345.588 609.242 355.338 625 369.184C685.004 421.911 708.971 507.381 669.691 580C662.005 594.211 652.364 607.495 640.996 619C634.376 625.7 623.089 632.61 619 641L614 646L617 645L615 648L626 652L625 655L627 658C641.283 656.408 656.143 635.684 664.575 625.17C696.276 585.639 713.959 534.935 707.845 484C699.52 414.655 655.298 351.106 590 324.012C561.745 312.288 531.311 309 501 309M374 310L375 311L374 310z"/>
<path style="fill:#352fbf; stroke:none;" d="M376 310L377 311L376 310M381 310L382 311L381 310z"/>
<path style="fill:#eba824; stroke:none;" d="M492 310L492 311L496 311L492 310z"/>
<path style="fill:#b8415e; stroke:none;" d="M442 323L443 325L442 325L432 327L432 328L437 327L437 328C434.243 329.043 425.615 332.111 426.292 335.989C426.905 339.505 430.823 339.876 431 344L424 343L425 346L423 346L424 349L427 348L427 349L424 350L424 351L429 351C429.89 347.163 433.438 346.647 437 347L436 345L439 346L438 344L441 345L440 343L441 343L448 340L450 341L450 339L453 340L453 338L456 339L455 337L456 337L483 331.286L530 329L530 328L523 328C522.396 322.941 516.518 320.815 512 320C512.302 315.822 512.133 313.596 508 312L508 311L512 311L495 311L456 318L442 323z"/>
<path style="fill:#eba824; stroke:none;" d="M377 311L378 312L377 311M381 311L382 312L381 311M485 311L485 312L488 312L485 311M480.667 312.333L481.333 312.667L480.667 312.333M475.667 313.333L476.333 313.667L475.667 313.333M470.667 314.333L471.333 314.667L470.667 314.333M466 315L467 316L466 315M462 316L463 317L462 316M458.667 317.333L459.333 317.667L458.667 317.333M455 318L456 319L455 318M452 319L453 320L452 319M449 320L450 321L449 320M446 321L447 322L446 321M441 323L442 324L441 323z"/>
<path style="fill:#352fbf; stroke:none;" d="M443 323L444 324L443 323M447 323L448 324L447 323z"/>
<path style="fill:#b8415e; stroke:none;" d="M275 326C267.871 327.357 270.211 333.83 271 339C290.095 342.544 312.617 340.717 332 339.961C338.419 339.711 351.482 339.638 347.393 329.058C344.958 322.759 337.098 324.563 332 324.911C319.023 325.794 304.977 325.799 292 324.911C287.082 324.574 278.645 321.828 275 326z"/>
<path style="fill:#eba824; stroke:none;" d="M288 324L288 325L336 325C323.586 319.791 301.526 324 288 324M341 324L341 325L344 325L341 324M438 324L439 325L438 324z"/>
<path style="fill:#352fbf; stroke:none;" d="M441.667 324.333L442.333 324.667L441.667 324.333M274 325L275 326L274 325z"/>
<path style="fill:#eba824; stroke:none;" d="M345 325L346 326L345 325M436 325L437 326L436 325z"/>
<path style="fill:#352fbf; stroke:none;" d="M440 325L438 326L438 327L440 325z"/>
<path style="fill:#eba824; stroke:none;" d="M271 326L272 327L271 326M346 326L347 327L346 326M347 327L348 328L347 327z"/>
<path style="fill:#352fbf; stroke:none;" d="M427 330L428 332C410.177 333.373 389.025 353.98 377 366C336.082 406.903 308.383 468.277 319 527L320 527L320 524L330 519L331 519L332 510L333 510L334 517L335 517C335 448.01 368.697 387.426 428 351L428 350L424 351L424 350L427 349L427 348L424 349L423 346L425 346L424 343L431 344L426.6 335.499L437 328L427 330M270 328L271 329L270 328z"/>
<path style="fill:#eba824; stroke:none;" d="M430 328L431 329L430 328M512 328L512 329L516 329L512 328M517 328L518 329L517 328M428 329L429 330L428 329z"/>
<path style="fill:#b8415e; stroke:none;" d="M429 329L430 330L429 329z"/>
<path style="fill:#eba824; stroke:none;" d="M496 329L496 330L500 330L496 329z"/>
<path style="fill:#fbfdfc; stroke:none;" d="M404 530C406.073 537.359 407.191 546.233 413.185 551.61C419.473 557.25 429.339 557.75 434.297 565.015C440.54 574.163 431.725 579.898 423 578.815C400.925 576.075 388.629 551.634 385.87 532C379.924 489.704 395.077 449.209 425.17 419.17C479.895 364.542 570.514 382.155 611.402 443C627.159 466.449 632.002 493.354 632 521C631.999 538.25 627.968 557.041 613.996 568.532C608.101 573.381 599.014 579.202 591 578.721C584.109 578.308 578.478 571.781 581.587 565.005C585.404 556.686 595.078 557.861 601.996 554.084C610.737 549.312 611.994 540.042 612 531C594.859 531 587.663 538.077 575.961 550.015C554.935 571.465 544.374 600.113 570 622.714C578.638 630.333 587.787 636.882 597 643.76C599.994 645.995 603.814 651.24 608 649.248C612.123 647.287 615.481 642.516 619 639.615C630.838 629.854 641.817 619.911 651.576 608C686.163 565.785 698.259 506.467 682.562 454C661.918 385.004 595.674 330.795 523 329.015C486.909 328.131 450.607 336.091 420 355.864C347.079 402.973 311.274 502.054 353.692 581C363.518 599.287 375.061 616.411 390 630.985C395.209 636.067 402.186 643.516 409 646.343C413.528 648.221 419.362 642.601 423 640.319C434.912 632.849 452.178 623.861 458.95 611C463.426 602.498 461.901 591.961 459.88 583C454.441 558.879 430.393 530.218 404 530z"/>
<path style="fill:#eba824; stroke:none;" d="M269 330L270 331L269 330z"/>
<path style="fill:#b8415e; stroke:none;" d="M424 333L428 331L424 333z"/>
<path style="fill:#eba824; stroke:none;" d="M488 330L488 331L491 331L488 330z"/>
<path style="fill:#b8415e; stroke:none;" d="M543 330L544 331L543 330z"/>
<path style="fill:#eba824; stroke:none;" d="M481 331L481 332L484 332L481 331M422 332L423 333L422 332M477.667 332.333L478.333 332.667L477.667 332.333M420 333L421 334L420 333z"/>
<path style="fill:#352fbf; stroke:none;" d="M429.667 333.333L430.333 333.667L429.667 333.333z"/>
<path style="fill:#eba824; stroke:none;" d="M473 333L474 334L473 333M269 334L270 335L269 334M418 334L419 335L418 334z"/>
<path style="fill:#b8415e; stroke:none;" d="M422 334L424 336L422 334z"/>
<path style="fill:#eba824; stroke:none;" d="M469 334L470 335L469 334z"/>
<path style="fill:#b8415e; stroke:none;" d="M564 334L565 335L564 334z"/>
<path style="fill:#eba824; stroke:none;" d="M347 335L348 336L347 335z"/>
<path style="fill:#b8415e; stroke:none;" d="M417 335L418 336L417 335z"/>
<path style="fill:#352fbf; stroke:none;" d="M427.667 335.333L428.333 335.667L427.667 335.333z"/>
<path style="fill:#eba824; stroke:none;" d="M465.667 335.333L466.333 335.667L465.667 335.333z"/>
<path style="fill:#352fbf; stroke:none;" d="M270 336L271 337L270 336z"/>
<path style="fill:#eba824; stroke:none;" d="M415 336L416 337L415 336M462.667 336.333L463.333 336.667L462.667 336.333z"/>
<path style="fill:#352fbf; stroke:none;" d="M271 337L272 338L271 337z"/>
<path style="fill:#eba824; stroke:none;" d="M346 337L347 338L346 337z"/>
<path style="fill:#b8415e; stroke:none;" d="M414 337L415 338L414 337z"/>
<path style="fill:#352fbf; stroke:none;" d="M455.667 337.333L456.333 337.667L455.667 337.333z"/>
<path style="fill:#eba824; stroke:none;" d="M459 337L460 338L459 337M345 338L346 339L345 338M412 338L413 339L412 338z"/>
<path style="fill:#352fbf; stroke:none;" d="M453 338L454 339L453 338M274.667 339.333L275.333 339.667L274.667 339.333M278 339L279 340L278 339M336 339L336 340L340 340L336 339z"/>
<path style="fill:#eba824; stroke:none;" d="M344 339L345 340L344 339M410 339L411 340L410 339z"/>
<path style="fill:#352fbf; stroke:none;" d="M450.667 339.333L451.333 339.667L450.667 339.333z"/>
<path style="fill:#eba824; stroke:none;" d="M453 339L454 340L453 339z"/>
<path style="fill:#b8415e; stroke:none;" d="M409 340L410 341L409 340z"/>
<path style="fill:#352fbf; stroke:none;" d="M448 340L449 341L448 340z"/>
<path style="fill:#eba824; stroke:none;" d="M450 340L451 341L450 340M407 341L408 342L407 341z"/>
<path style="fill:#b8415e; stroke:none;" d="M406 342L407 343L406 342z"/>
<path style="fill:#352fbf; stroke:none;" d="M442 342L443 343L442 342z"/>
<path style="fill:#eba824; stroke:none;" d="M446 342L447 343L446 342M404 343L405 344L404 343z"/>
<path style="fill:#352fbf; stroke:none;" d="M440.667 343.333L441.333 343.667L440.667 343.333z"/>
<path style="fill:#eba824; stroke:none;" d="M443 343L444 344L443 343z"/>
<path style="fill:#b8415e; stroke:none;" d="M403 344L404 345L403 344z"/>
<path style="fill:#352fbf; stroke:none;" d="M425.667 344.333L426.333 344.667L425.667 344.333M429 344L428 346L429 344M434 344L435 345L434 344M438.667 344.333L439.333 344.667L438.667 344.333z"/>
<path style="fill:#eba824; stroke:none;" d="M441 344L442 345L441 344M401 345L402 346L401 345z"/>
<path style="fill:#352fbf; stroke:none;" d="M432 345L433 346L432 345M436.667 345.333L437.333 345.667L436.667 345.333z"/>
<path style="fill:#b8415e; stroke:none;" d="M400 346L401 347L400 346z"/>
<path style="fill:#352fbf; stroke:none;" d="M426 346L428 348L426 346M428 349L428 350L436 347L428 349z"/>
<path style="fill:#eba824; stroke:none;" d="M434 347L435 348L434 347z"/>
<path style="fill:#b8415e; stroke:none;" d="M432 348L433 349L432 348M396 349L397 350L396 349M430 349L431 350L430 349z"/>
<path style="fill:#eba824; stroke:none;" d="M393 351L394 352L393 351M427 351L428 352L427 351z"/>
<path style="fill:#b8415e; stroke:none;" d="M421 352L419 353L419 354L421 352z"/>
<path style="fill:#eba824; stroke:none;" d="M425 352L426 353L425 352z"/>
<path style="fill:#b8415e; stroke:none;" d="M416 353L415 357L416 353M423 353L424 354L423 353z"/>
<path style="fill:#eba824; stroke:none;" d="M422 354L423 355L422 354M388 355L389 356L388 355z"/>
<path style="fill:#b8415e; stroke:none;" d="M420 355L421 356L420 355M387 356L388 357L387 356M417 357L418 358L417 357M412 358L413 359L412 358z"/>
<path style="fill:#eba824; stroke:none;" d="M416 358L417 359L416 358z"/>
<path style="fill:#b8415e; stroke:none;" d="M410 360L409 362L410 360M413 360L414 361L413 360z"/>
<path style="fill:#eba824; stroke:none;" d="M256 361L256 362L280 362L256 361M710 361.573C696.568 364.184 700.344 386.09 713.999 383.566C727.964 380.986 724.349 358.784 710 361.573z"/>
<path style="fill:#352fbf; stroke:none;" d="M251 365L256 365L256 364L255 362L251 365z"/>
<path style="fill:#b8415e; stroke:none;" d="M256 364L256 365L250 365L250 366L250 369C253.293 369 250.629 370.473 249 371L249 372L252 377L309 376L309 377L306 377L306 378L313 376L315 377L316 373L318 373C317.474 368.924 318.568 364.816 314 362.5C310.287 360.617 303.114 362 299 362C286.528 362 267.83 358.431 256 362.167C253.809 362.859 254.768 363.464 256 364z"/>
<path style="fill:#eba824; stroke:none;" d="M314 362L315 363L314 362z"/>
<path style="fill:#b8415e; stroke:none;" d="M407 362L408 363L407 362M410 362L411 363L410 362z"/>
<path style="fill:#eba824; stroke:none;" d="M315 363L316 364L315 363M409 363L410 364L409 363M316 364L317 365L316 364M408 364L409 365L408 364M317 365L318 366L317 365z"/>
<path style="fill:#352fbf; stroke:none;" d="M250 366L249 371L252 371L250 369L252 366L250 366M253 366L252 368L253 366z"/>
<path style="fill:#b8415e; stroke:none;" d="M402 366L403 367L402 366M405 366L406 367L405 366z"/>
<path style="fill:#eba824; stroke:none;" d="M249 367L250 368L249 367z"/>
<path style="fill:#352fbf; stroke:none;" d="M317 367L318 368L317 367z"/>
<path style="fill:#eba824; stroke:none;" d="M404 367L405 368L404 367z"/>
<path style="fill:#352fbf; stroke:none;" d="M254 368L255 369L254 368z"/>
<path style="fill:#eba824; stroke:none;" d="M318.333 368.667L318.667 369.333L318.333 368.667M374 368L375 369L374 368z"/>
<path style="fill:#b8415e; stroke:none;" d="M400 368L399 370L400 368z"/>
<path style="fill:#eba824; stroke:none;" d="M403 368L404 369L403 368M373 369L374 370L373 369z"/>
<path style="fill:#b8415e; stroke:none;" d="M401 369L402 370L401 369z"/>
<path style="fill:#eba824; stroke:none;" d="M372 370L373 371L372 370z"/>
<path style="fill:#b8415e; stroke:none;" d="M400 370L401 371L400 370z"/>
<path style="fill:#352fbf; stroke:none;" d="M317 371L318 372L317 371z"/>
<path style="fill:#eba824; stroke:none;" d="M371 371L372 372L371 371z"/>
<path style="fill:#b8415e; stroke:none;" d="M399 371L400 372L399 371z"/>
<path style="fill:#eba824; stroke:none;" d="M249 372L250 373L249 372z"/>
<path style="fill:#352fbf; stroke:none;" d="M250 372L253 376L250 372z"/>
<path style="fill:#eba824; stroke:none;" d="M370 372L371 373L370 372z"/>
<path style="fill:#b8415e; stroke:none;" d="M398 372L399 373L398 372z"/>
<path style="fill:#352fbf; stroke:none;" d="M316 373L317 374L316 373z"/>
<path style="fill:#eba824; stroke:none;" d="M317 373L318 374L317 373M369 373L370 374L369 373M397 373L398 374L397 373z"/>
<path style="fill:#b8415e; stroke:none;" d="M250 374L251 375L250 374z"/>
<path style="fill:#eba824; stroke:none;" d="M368 374L369 375L368 374M396 374L397 375L396 374z"/>
<path style="fill:#352fbf; stroke:none;" d="M315 375L316 376L315 375z"/>
<path style="fill:#b8415e; stroke:none;" d="M392 375L391 377L392 375z"/>
<path style="fill:#eba824; stroke:none;" d="M395 375L396 376L395 375z"/>
<path style="fill:#352fbf; stroke:none;" d="M253 376L253 377L296 377C284.775 372.289 265.219 376 253 376M302 376L303 377L302 376M304 376L304 377L309 377L304 376M313 376L314 377L313 376z"/>
<path style="fill:#eba824; stroke:none;" d="M315 376L316 377L315 376z"/>
<path style="fill:#b8415e; stroke:none;" d="M394 376L395 377L394 376z"/>
<path style="fill:#eba824; stroke:none;" d="M263 377L263 378L306 378C294.775 373.289 275.219 377 263 377M313 377L314 378L313 377M393 377L394 378L393 377M392 378L393 379L392 378z"/>
<path style="fill:#b8415e; stroke:none;" d="M364 379L365 380L364 379z"/>
<path style="fill:#eba824; stroke:none;" d="M391 379L392 380L391 379M363 380L364 381L363 380M390 380L391 381L390 380M362 381L363 382L362 381M389 381L390 382L389 381M388 382L389 383L388 382M387 383L388 384L387 383z"/>
<path style="fill:#b8415e; stroke:none;" d="M386 384L387 385L386 384M359 385L360 386L359 385z"/>
<path style="fill:#eba824; stroke:none;" d="M385 385L386 386L385 385M358 386L359 387L358 386z"/>
<path style="fill:#b8415e; stroke:none;" d="M384 386L385 387L384 386z"/>
<path style="fill:#0dbdbb; stroke:none;" d="M411 573C416.218 581.624 440.652 582.51 436.195 568C433.135 558.036 421.118 557.61 414.093 551.61C407.546 546.017 406.85 537.555 404 530C435.347 530.651 470.587 575.86 460.211 607C457.175 616.112 448.31 621.882 441 627.373C433.865 632.733 426.576 637.49 419 642.193C416.455 643.773 413.217 646.69 410 645.924C403.049 644.267 394.919 634.857 390 629.996C372.392 612.596 357.206 591.065 348 568C344.874 560.169 343.066 541.103 337 536L336 515L335 515L335 517L334 517L333 510L332 510L331 519L330 519L330 516L320 527L319 527L319 524L318 524L320 532C319.224 536.244 318.315 541.019 322 544C320.939 548.21 321.353 553.236 325 556C323.9 563.437 328.804 573.186 331.72 580C339.851 599 350.69 616.175 363.92 632C425.283 705.404 552.903 720.216 627 658C622.032 645.32 611.24 653.395 603 647.763C575.56 629.007 540.14 604.747 561.464 568C566.113 559.989 573.22 553.79 579.576 547.17C589.817 536.502 597.072 531 612 531C611.973 540.796 609.541 550.003 600 554.597C593.693 557.634 585.117 556.8 581.573 564.019C577.933 571.433 583.148 578.551 591 578.867C598.782 579.179 606.965 574.549 612.999 570.076C627.487 559.335 631.993 540.154 632 523C632.011 494.092 627.964 465.29 610.7 441C569.684 383.294 489.208 367.348 432 412.453C397.27 439.836 379.485 486.484 385.425 530C387.198 542.985 394.31 572.271 411 573z"/>
<path style="fill:#b8415e; stroke:none;" d="M383 387L384 388L383 387M382 388L383 389L382 388z"/>
<path style="fill:#eba824; stroke:none;" d="M356 389L357 390L356 389z"/>
<path style="fill:#b8415e; stroke:none;" d="M381 389L382 390L381 389z"/>
<path style="fill:#eba824; stroke:none;" d="M379 392L380 393L379 392M747.004 392.562C729.285 397.046 735.117 424.938 754 420.606C773.117 416.219 765.498 387.881 747.004 392.562z"/>
<path style="fill:#b8415e; stroke:none;" d="M353 393L354 394L353 393z"/>
<path style="fill:#eba824; stroke:none;" d="M378 393L379 394L378 393M377 394L378 395L377 394z"/>
<path style="fill:#b8415e; stroke:none;" d="M376 395L377 396L376 395M351 396L352 397L351 396M375 396L376 397L375 396z"/>
<path style="fill:#eba824; stroke:none;" d="M350 397L351 398L350 397z"/>
<path style="fill:#b8415e; stroke:none;" d="M374 397L375 398L374 397M373 398L374 399L373 398z"/>
<path style="fill:#eba824; stroke:none;" d="M373 399L374 400L373 399M348 400L349 401L348 400z"/>
<path style="fill:#b8415e; stroke:none;" d="M372 400L373 401L372 400z"/>
<path style="fill:#eba824; stroke:none;" d="M229.667 402.333L230.333 402.667L229.667 402.333z"/>
<path style="fill:#b8415e; stroke:none;" d="M231 402L231 403L258 403L258 404L230 404L227 406L227 407L232 408C232.528 403.893 241.346 408.939 245 409L245 410L240 410L240 411L246 411L246 412L244 412L244 413L252 414L252 415L236 415L236 416L287 416C288.045 412.758 289.831 406.804 286.763 404.105C283.187 400.959 275.344 402.001 271 402L231 402z"/>
<path style="fill:#eba824; stroke:none;" d="M280 402L281 403L280 402M283 402L283 403L286 403L283 402M347 402L348 403L347 402z"/>
<path style="fill:#b8415e; stroke:none;" d="M227 403L229 405L227 403z"/>
<path style="fill:#352fbf; stroke:none;" d="M229 405L226 404C218.808 423.768 255.962 417 268 417C272.901 417 282.593 418.899 286 415L236 416L236 415L252 415L252 414L244 413L244 412L246 412L246 411L240 411L240 410L245 410L245 409C241.219 408.794 231.974 402.885 232 408L227 407L227 406C229.444 406.303 230.028 406.437 230 404L258 404C254.129 402.131 229.627 401.24 229 405M285 403L286 404L285 403z"/>
<path style="fill:#eba824; stroke:none;" d="M287 403L288 404L287 403M370 403L371 404L370 403M288 404L289 405L288 404z"/>
<path style="fill:#b8415e; stroke:none;" d="M369 404L370 405L369 404M225 405L226 406L225 405z"/>
<path style="fill:#eba824; stroke:none;" d="M345 405L346 406L345 405z"/>
<path style="fill:#352fbf; stroke:none;" d="M288 406L288 411L289 411L288 406z"/>
<path style="fill:#fbfdfc; stroke:none;" d="M403 511C427.91 511.003 441.392 523.715 456.465 541.999C462.208 548.966 473.757 551.051 477.682 559.004C480.293 564.293 478.665 571.29 479.424 577C481.108 589.665 483.133 601.471 479.225 614C473.04 633.832 449.329 648.882 432 658L432 659C454.679 666.164 474.44 675.493 499 676C498.279 641.052 498 606.024 498 571C498 562.1 494.427 540.861 505.015 536.743C520.703 530.641 520 555.334 520 564L520 636C520 648.201 521.833 662.099 519 674C541.03 680.512 568.288 666.921 589 661C585.868 655.879 578.791 653.317 574 649.779C561.019 640.193 546.133 630.958 538.659 616C532.105 602.884 534.55 584.831 537.197 571C538.069 566.441 538.276 561.046 540.854 557.043C544.747 551 553.124 549.579 557.919 543.985C573.996 525.225 586.331 510.074 613 510C610.313 475.956 597.74 444.343 569 424.043C500.897 375.939 403 428.076 403 511z"/>
<path style="fill:#b8415e; stroke:none;" d="M224 407L225 408L224 407z"/>
<path style="fill:#eba824; stroke:none;" d="M367 407L368 408L367 407z"/>
<path style="fill:#b8415e; stroke:none;" d="M343 408L344 409L343 408M366 408L367 409L366 408z"/>
<path style="fill:#eba824; stroke:none;" d="M785.742 409.029C780.804 412.985 786.945 422.623 792.602 418.242C798.734 413.494 791.289 404.584 785.742 409.029z"/>
<path style="fill:#b8415e; stroke:none;" d="M230 409L229 411L230 409z"/>
<path style="fill:#352fbf; stroke:none;" d="M247.667 409.333L248.333 409.667L247.667 409.333z"/>
<path style="fill:#eba824; stroke:none;" d="M342 409L343 410L342 409M365 410L366 411L365 410z"/>
<path style="fill:#b8415e; stroke:none;" d="M231.333 411.667L231.667 412.333L231.333 411.667z"/>
<path style="fill:#eba824; stroke:none;" d="M341 411L342 412L341 411z"/>
<path style="fill:#b8415e; stroke:none;" d="M364 411L365 412L364 411z"/>
<path style="fill:#eba824; stroke:none;" d="M288 412L289 413L288 412z"/>
<path style="fill:#b8415e; stroke:none;" d="M224 413L225 414L224 413M340 413L341 414L340 413z"/>
<path style="fill:#eba824; stroke:none;" d="M363 413L364 414L363 413M224 414L225 415L224 414M287 414L288 415L287 414z"/>
<path style="fill:#b8415e; stroke:none;" d="M362 414L363 415L362 414M225 415L226 416L225 415M230 415L231 416L230 415M339 415L340 416L339 415M226 416L227 417L226 416z"/>
<path style="fill:#eba824; stroke:none;" d="M228 417L228 418L231 418L228 417z"/>
<path style="fill:#b8415e; stroke:none;" d="M231 417L231 418L234 418L231 417z"/>
<path style="fill:#eba824; stroke:none;" d="M234 417L234 418L240 418L234 417M360 418L361 419L360 418z"/>
<path style="fill:#b8415e; stroke:none;" d="M337 419L338 420L337 419M359 419L360 420L359 419M336 421L337 422L336 421z"/>
<path style="fill:#eba824; stroke:none;" d="M335 423L336 424L335 423M357 423L358 424L357 423z"/>
<path style="fill:#b8415e; stroke:none;" d="M334 425L335 426L334 425z"/>
<path style="fill:#eba824; stroke:none;" d="M356 425L357 426L356 425z"/>
<path style="fill:#b8415e; stroke:none;" d="M355 427L356 428L355 427z"/>
<path style="fill:#eba824; stroke:none;" d="M354 429L355 430L354 429M332 430L333 431L332 430M353 431L354 432L353 431M352 433L353 434L352 433z"/>
<path style="fill:#b8415e; stroke:none;" d="M330 435L331 436L330 435z"/>
<path style="fill:#eba824; stroke:none;" d="M351 435L352 436L351 435M329 438L330 439L329 438M349 439L350 440L349 439M214 440L215 441L214 440z"/>
<path style="fill:#b8415e; stroke:none;" d="M215 440L216 441L215 440z"/>
<path style="fill:#352fbf; stroke:none;" d="M289 451L288 451C284.865 457.27 260.975 456.098 262 452L256 452L256 451L260 451L260 450L256 446L252 446L252 445L256 445L256 444L249 444L249 443L256 442C246.845 438.158 226.801 438.321 217.001 440.344C211.411 441.498 206.785 448.445 210.862 453.682C214.161 457.921 224.243 456 229 456L273 456C279.209 456 285.803 457.339 289 451z"/>
<path style="fill:#b8415e; stroke:none;" d="M241 440L241 441L256 441L256 442L249 443L249 444L256 444L256 445L252 445L252 446L256 446L260 450L260 451L256 451L256 452L262 452C263.038 459.505 285.804 454.056 290 451L287 441L241 440z"/>
<path style="fill:#eba824; stroke:none;" d="M282.667 440.333L283.333 440.667L282.667 440.333z"/>
<path style="fill:#352fbf; stroke:none;" d="M284 441L285 442L284 441z"/>
<path style="fill:#b8415e; stroke:none;" d="M328 441L329 442L328 441z"/>
<path style="fill:#eba824; stroke:none;" d="M211 442L212 443L211 442M288 443L289 444L288 443M748 443.638C729.156 449.078 738.232 476.874 756 472.383C776.313 467.25 767.952 437.879 748 443.638z"/>
<path style="fill:#352fbf; stroke:none;" d="M257 444L258 445L257 444z"/>
<path style="fill:#eba824; stroke:none;" d="M289 444L290 445L289 444z"/>
<path style="fill:#b8415e; stroke:none;" d="M327 444L328 445L327 444z"/>
<path style="fill:#eba824; stroke:none;" d="M347 444L348 445L347 444z"/>
<path style="fill:#352fbf; stroke:none;" d="M288 445L289 446L288 445z"/>
<path style="fill:#b8415e; stroke:none;" d="M209.333 446.667L209.667 447.333L209.333 446.667z"/>
<path style="fill:#352fbf; stroke:none;" d="M424 446L425 447L424 446z"/>
<path style="fill:#0dbdbb; stroke:none;" d="M457 446.518C440.289 450.089 431.346 470.543 437.479 486C443.555 501.313 461.929 510.76 478 507.331C497.61 503.147 502.699 480.273 494.33 464C487.333 450.394 471.889 443.336 457 446.518M541 446.465C530.904 448.282 521.872 453.248 517.529 463C508.478 483.324 520.343 512.03 546 507.536C557.375 505.544 568.459 498.909 573.275 488C582.991 465.989 564.919 442.159 541 446.465z"/>
<path style="fill:#352fbf; stroke:none;" d="M289 447L289 450L290 450L289 447z"/>
<path style="fill:#b8415e; stroke:none;" d="M255 449L256 450L255 449z"/>
<path style="fill:#eba824; stroke:none;" d="M345 449L346 450L345 449z"/>
<path style="fill:#0dbdbb; stroke:none;" d="M325 450L326 451L325 450M812 458C815.993 457.498 815.178 452.694 811.917 450.894C796.345 442.299 807.211 474.371 812 458z"/>
<path style="fill:#b8415e; stroke:none;" d="M209 451L210 452L209 451z"/>
<path style="fill:#eba824; stroke:none;" d="M289.333 451.667L289.667 452.333L289.333 451.667M209 452L210 453L209 452M288 453L289 454L288 453M324 453L325 454L324 453M210 454L211 455L210 454z"/>
<path style="fill:#b8415e; stroke:none;" d="M287 454L288 455L287 454z"/>
<path style="fill:#0dbdbb; stroke:none;" d="M343 454L344 455L343 454z"/>
<path style="fill:#b8415e; stroke:none;" d="M286 455L287 456L286 455z"/>
<path style="fill:#eba824; stroke:none;" d="M257 456L257 457L267 457L257 456z"/>
<path style="fill:#b8415e; stroke:none;" d="M267 456L267 457L276 457L267 456z"/>
<path style="fill:#eba824; stroke:none;" d="M276 456L276 457L284 457L276 456z"/>
<path style="fill:#0dbdbb; stroke:none;" d="M323 457L324 458L323 457M342 457L343 458L342 457z"/>
<path style="fill:#eba824; stroke:none;" d="M490 458L491 459L490 458z"/>
<path style="fill:#0dbdbb; stroke:none;" d="M322 460L323 461L322 460M341 461L342 462L341 461z"/>
<path style="fill:#fbfdfc; stroke:none;" d="M462.043 463.743C448.878 469.007 461.274 493.352 472.956 489.218C485.184 484.89 476.157 458.1 462.043 463.743M544.001 463.653C530.139 468.016 531.638 493.891 548 489.056C562.368 484.811 561.253 458.222 544.001 463.653z"/>
<path style="fill:#eba824; stroke:none;" d="M321 464L322 465L321 464z"/>
<path style="fill:#0dbdbb; stroke:none;" d="M340 465L341 466L340 465M320 469L321 470L320 469M339 469L340 470L339 469M338 473L339 474L338 473z"/>
<path style="fill:#eba824; stroke:none;" d="M319 474L320 475L319 474z"/>
<path style="fill:#0dbdbb; stroke:none;" d="M337.333 478.667L337.667 479.333L337.333 478.667z"/>
<path style="fill:#eba824; stroke:none;" d="M245 479L246 480L245 479z"/>
<path style="fill:#b8415e; stroke:none;" d="M246 479L247 480L246 479z"/>
<path style="fill:#352fbf; stroke:none;" d="M247 479.494C229.781 482.621 237.803 502.645 253.999 498.757C268.777 495.209 259.968 477.139 247 479.494z"/>
<path style="fill:#b8415e; stroke:none;" d="M252 479L253 480L252 479z"/>
<path style="fill:#eba824; stroke:none;" d="M253 479L254 480L253 479z"/>
<path style="fill:#0dbdbb; stroke:none;" d="M318 480L319 481L318 480z"/>
<path style="fill:#b8415e; stroke:none;" d="M241 481L242 482L241 481M257 481L258 482L257 481z"/>
<path style="fill:#eba824; stroke:none;" d="M259 482L260 483L259 482z"/>
<path style="fill:#0dbdbb; stroke:none;" d="M336.333 484.667L336.667 485.333L336.333 484.667z"/>
<path style="fill:#b8415e; stroke:none;" d="M261 485L262 486L261 485z"/>
<path style="fill:#eba824; stroke:none;" d="M262 487L263 488L262 487z"/>
<path style="fill:#0dbdbb; stroke:none;" d="M317 487L317 490L318 490L317 487z"/>
<path style="fill:#b8415e; stroke:none;" d="M262 488L263 489L262 488z"/>
<path style="fill:#eba824; stroke:none;" d="M262 489L262 492L263 492L262 489z"/>
<path style="fill:#0dbdbb; stroke:none;" d="M335 491L335 496L336 496L335 491z"/>
<path style="fill:#eba824; stroke:none;" d="M261 493L262 494L261 493M237 494L238 495L237 494M733.001 495.483C726.16 496.987 722.641 507.871 730.225 511.254C734.727 513.262 743.032 511 748 511L795 511C800.319 511 810.076 512.862 814.725 509.972C820.656 506.287 818.466 497.446 811.985 496.228C796.098 493.245 777.178 496.026 761 496C751.829 495.985 742.123 493.477 733.001 495.483z"/>
<path style="fill:#b8415e; stroke:none;" d="M239 496L240 497L239 496z"/>
<path style="fill:#eba824; stroke:none;" d="M259 496L260 497L259 496M257 497L258 498L257 497z"/>
<path style="fill:#b8415e; stroke:none;" d="M242 498L243 499L242 498z"/>
<path style="fill:#eba824; stroke:none;" d="M245 499L246 500L245 499z"/>
<path style="fill:#b8415e; stroke:none;" d="M246.667 499.333L247.333 499.667L246.667 499.333M249 499L250 500L249 499z"/>
<path style="fill:#eba824; stroke:none;" d="M250.667 499.333L251.333 499.667L250.667 499.333z"/>
<path style="fill:#0dbdbb; stroke:none;" d="M330.333 512.667L330.667 513.333L330.333 512.667M317 517L317 524L318 524L317 517z"/>
<path style="fill:#b8415e; stroke:none;" d="M272 519L273 520L272 519z"/>
<path style="fill:#352fbf; stroke:none;" d="M273 519.558C248.206 522.585 255.578 558.488 280 554.787C303.551 551.218 295.034 516.867 273 519.558z"/>
<path style="fill:#b8415e; stroke:none;" d="M276 519L277 520L276 519z"/>
<path style="fill:#eba824; stroke:none;" d="M277 519L278 520L277 519z"/>
<path style="fill:#352fbf; stroke:none;" d="M328 519L330 521L328 519z"/>
<path style="fill:#eba824; stroke:none;" d="M281 520L282 521L281 520z"/>
<path style="fill:#b8415e; stroke:none;" d="M283 521L284 522L283 521M265 522L266 523L265 522M285 522L286 523L285 522z"/>
<path style="fill:#eba824; stroke:none;" d="M286 522L287 523L286 522z"/>
<path style="fill:#352fbf; stroke:none;" d="M335.333 522.667L335.667 523.333L335.333 522.667z"/>
<path style="fill:#eba824; stroke:none;" d="M287 523L288 524L287 523M262 524L263 525L262 524M288 524L289 525L288 524M208 525L208 526L213 526L208 525z"/>
<path style="fill:#0dbdbb; stroke:none;" d="M289 525L290 526L289 525z"/>
<path style="fill:#352fbf; stroke:none;" d="M206.144 527.028C196.723 532.53 206.988 544.762 215.786 539.682C225.853 533.87 215.083 521.807 206.144 527.028z"/>
<path style="fill:#eba824; stroke:none;" d="M216 526L217 527L216 526M204 527L205 528L204 527M259 528L260 529L259 528z"/>
<path style="fill:#352fbf; stroke:none;" d="M318 528L319 529L318 528z"/>
<path style="fill:#eba824; stroke:none;" d="M258 530L259 531L258 530z"/>
<path style="fill:#0dbdbb; stroke:none;" d="M278 530L279 531L278 530z"/>
<path style="fill:#fbfdfc; stroke:none;" d="M279.185 530.956C271.69 532.885 274.062 546.723 281.957 544.338C289.46 542.071 287.211 528.89 279.185 530.956z"/>
<path style="fill:#0dbdbb; stroke:none;" d="M281.667 530.333L282.333 530.667L281.667 530.333z"/>
<path style="fill:#b8415e; stroke:none;" d="M292 530L293 531L292 530z"/>
<path style="fill:#eba824; stroke:none;" d="M202 531L203 532L202 531z"/>
<path style="fill:#0dbdbb; stroke:none;" d="M283.667 531.333L284.333 531.667L283.667 531.333z"/>
<path style="fill:#eba824; stroke:none;" d="M293 531L294 532L293 531z"/>
<path style="fill:#b8415e; stroke:none;" d="M202 532L203 533L202 532z"/>
<path style="fill:#0dbdbb; stroke:none;" d="M276 532L277 533L276 532M285 532L286 533L285 532z"/>
<path style="fill:#352fbf; stroke:none;" d="M319 532L319 535L320 535L319 532z"/>
<path style="fill:#b8415e; stroke:none;" d="M257 533L258 534L257 533z"/>
<path style="fill:#0dbdbb; stroke:none;" d="M286 533L287 534L286 533z"/>
<path style="fill:#b8415e; stroke:none;" d="M294 534L295 535L294 534z"/>
<path style="fill:#eba824; stroke:none;" d="M752.228 535.028C746.76 538.373 749.449 547.23 755.018 548.682C768.3 552.145 786.257 548.935 800 549.001C804.278 549.021 811.858 551.45 815.362 548.247C820.522 543.53 817.192 535.633 810.996 534.344C797.718 531.583 781.563 534 768 534C763.546 534 756.17 532.617 752.228 535.028M202 535L203 536L202 535M219 535L220 536L219 535z"/>
<path style="fill:#0dbdbb; stroke:none;" d="M274 535L275 536L274 535M287 535L287 540L288 540L287 535z"/>
<path style="fill:#352fbf; stroke:none;" d="M337 535L338 536L337 535z"/>
<path style="fill:#eba824; stroke:none;" d="M218 537L219 538L218 537M203 538L204 539L203 538M256 538L257 539L256 538z"/>
<path style="fill:#b8415e; stroke:none;" d="M204 539L205 540L204 539M206 540L207 541L206 540M214 540L215 541L214 540z"/>
<path style="fill:#0dbdbb; stroke:none;" d="M274 540L275 541L274 540M286.333 540.667L286.667 541.333L286.333 540.667z"/>
<path style="fill:#b8415e; stroke:none;" d="M294 541L295 542L294 541M257 542L258 543L257 542z"/>
<path style="fill:#0dbdbb; stroke:none;" d="M275 542L276 543L275 542M285 542L286 543L285 542z"/>
<path style="fill:#eba824; stroke:none;" d="M294 542L295 543L294 542M276 543L277 544L276 543z"/>
<path style="fill:#0dbdbb; stroke:none;" d="M284 543L285 544L284 543M277 544L278 545L277 544M283 544L284 545L283 544z"/>
<path style="fill:#eba824; stroke:none;" d="M293 544L294 545L293 544z"/>
<path style="fill:#352fbf; stroke:none;" d="M321 544L322 545L321 544M323 544L324 545L323 544z"/>
<path style="fill:#eba824; stroke:none;" d="M258 545L259 546L258 545z"/>
<path style="fill:#0dbdbb; stroke:none;" d="M278 545L278 546L282 546L278 545z"/>
<path style="fill:#b8415e; stroke:none;" d="M259 546L260 547L259 546z"/>
<path style="fill:#eba824; stroke:none;" d="M292 546L293 547L292 546z"/>
<path style="fill:#0dbdbb; stroke:none;" d="M291 547L292 548L291 547z"/>
<path style="fill:#352fbf; stroke:none;" d="M322.333 547.667L322.667 548.333L322.333 547.667z"/>
<path style="fill:#0dbdbb; stroke:none;" d="M290 548L291 549L290 548z"/>
<path style="fill:#b8415e; stroke:none;" d="M289 549L290 550L289 549M288 550L289 551L288 550z"/>
<path style="fill:#0dbdbb; stroke:none;" d="M266 552L267 553L266 552z"/>
<path style="fill:#eba824; stroke:none;" d="M286 552L287 553L286 552M268 553L269 554L268 553z"/>
<path style="fill:#0dbdbb; stroke:none;" d="M284 553L285 554L284 553z"/>
<path style="fill:#eba824; stroke:none;" d="M271 554L272 555L271 554z"/>
<path style="fill:#0dbdbb; stroke:none;" d="M282 554L283 555L282 554z"/>
<path style="fill:#352fbf; stroke:none;" d="M324 556L325 557L324 556z"/>
<path style="fill:#eba824; stroke:none;" d="M736.105 572.028C730.514 575.133 729.431 584.649 736.055 587.244C740.91 589.146 748.794 588 754 588L791 588C795.853 588 804.614 589.67 808.606 586.397C813.355 582.502 812.047 573.752 805.815 572.279C791.169 568.815 774.007 573.258 759 571.83C752.671 571.228 741.953 568.779 736.105 572.028M237 572L238 573L237 572z"/>
<path style="fill:#352fbf; stroke:none;" d="M238.04 572.667C233.28 574.116 227.593 583.529 234.148 586.397C237.725 587.961 243.173 587 247 587C257.547 587 276.164 590.622 285.786 586.258C291.355 583.732 290.766 575.129 284.956 573.434C275.067 570.548 261.291 573.049 251 572.999C246.902 572.979 241.996 571.464 238.04 572.667z"/>
<path style="fill:#b8415e; stroke:none;" d="M243 572L244 573L243 572z"/>
<path style="fill:#eba824; stroke:none;" d="M244 572L244 573L254 573L244 572M235 573L236 574L235 573M286 573L287 574L286 573z"/>
<path style="fill:#352fbf; stroke:none;" d="M410 573L411 574L410 573z"/>
<path style="fill:#b8415e; stroke:none;" d="M233 575L234 576L233 575z"/>
<path style="fill:#eba824; stroke:none;" d="M289 576L290 577L289 576M231 579L232 580L231 579M289 582L290 583L289 582M288 584L289 585L288 584M231 585L232 586L231 585z"/>
<path style="fill:#b8415e; stroke:none;" d="M286 586L287 587L286 586z"/>
<path style="fill:#eba824; stroke:none;" d="M237 587L238 588L237 587z"/>
<path style="fill:#b8415e; stroke:none;" d="M741 587L741 588L744 588L741 587M662 594L663 595L662 594M681 599L682 600L681 599z"/>
<path style="fill:#eba824; stroke:none;" d="M256 608L257 609L256 608z"/>
<path style="fill:#352fbf; stroke:none;" d="M257.019 608.742C251.037 611.127 248.633 621.404 256.044 623.566C261.715 625.221 268.284 623.481 274 623.089C283.586 622.433 293.392 623 303 623C307.437 623 315.619 624.563 319.442 621.972C324.834 618.318 323.366 609.429 316.985 608.228C303.891 605.765 288.331 608 275 608C269.577 608 262.132 606.704 257.019 608.742z"/>
<path style="fill:#eba824; stroke:none;" d="M319 608L320 609L319 608M321 609L322 610L321 609M725.005 610.573C718.331 612.52 715.619 622.186 723.055 625.258C727.341 627.028 733.449 626 738 626C749.381 626 771.534 629.831 781.786 624.347C787.053 621.53 787.231 612.956 780.981 611.318C769.208 608.233 755.914 610.998 744 610.998C737.824 610.998 731.08 608.799 725.005 610.573M322 611L323 612L322 611z"/>
<path style="fill:#b8415e; stroke:none;" d="M251 615L252 616L251 615M322 617L323 618L322 617z"/>
<path style="fill:#eba824; stroke:none;" d="M322 618L323 619L322 618M251 620L252 621L251 620M321 620L322 621L321 620z"/>
<path style="fill:#b8415e; stroke:none;" d="M320 621L321 622L320 621M665 621L666 622L665 621z"/>
<path style="fill:#eba824; stroke:none;" d="M252 622L253 623L252 622z"/>
<path style="fill:#0dbdbb; stroke:none;" d="M254 623L255 624L254 623M270 623L270 624L288 624L270 623z"/>
<path style="fill:#eba824; stroke:none;" d="M288 623L288 624L299 624L288 623z"/>
<path style="fill:#0dbdbb; stroke:none;" d="M299 623L299 624L308 624L299 623z"/>
<path style="fill:#eba824; stroke:none;" d="M308 623L308 624L314 624L308 623z"/>
<path style="fill:#b8415e; stroke:none;" d="M630 631L631 632L630 631M657 631L656 633L657 631M620 639L621 640L620 639M618 640L619 641L618 640M617 641L616 643L618 643L617 641M647 641L648 642L647 641M645 643L644 645L645 643M611 648L622 651L622 650L615 648L617 645L614 646L615 644L611 648M622 645L624 648L622 645z"/>
<path style="fill:#eba824; stroke:none;" d="M277 646L277 647L320 647C308.774 642.29 289.219 646 277 646M328 646L329 647L328 646z"/>
<path style="fill:#b8415e; stroke:none;" d="M619.333 646.667L619.667 647.333L619.333 646.667M642 646L639 650L642 646z"/>
<path style="fill:#eba824; stroke:none;" d="M269 647L270 648L269 647z"/>
<path style="fill:#352fbf; stroke:none;" d="M270.214 647.742C264.419 650.37 264.901 659.817 271.019 661.566C284.314 665.367 303.161 662 317 662C321.644 662 328.907 663.346 332.852 660.397C338.087 656.483 336.318 648.365 329.96 647.225C316.794 644.862 301.382 647 288 647C282.818 647 275.017 645.564 270.214 647.742z"/>
<path style="fill:#eba824; stroke:none;" d="M332 647L333 648L332 647M610 647L611 648L610 647M334 648L336 650L334 648z"/>
<path style="fill:#b8415e; stroke:none;" d="M609 648L610 649L609 648z"/>
<path style="fill:#352fbf; stroke:none;" d="M610 648L610 649L615 649L610 648z"/>
<path style="fill:#eba824; stroke:none;" d="M267 649L268 650L267 649z"/>
<path style="fill:#b8415e; stroke:none;" d="M334 649L335 650L334 649M635 649L633 652L636 652L635 649M266 651L267 652L266 651z"/>
<path style="fill:#eba824; stroke:none;" d="M336.333 651.667L336.667 652.333L336.333 651.667z"/>
<path style="fill:#b8415e; stroke:none;" d="M623 651L624 652L623 651M624.667 652.333L625.333 652.667L624.667 652.333M636 652L637 653L636 652M336 653L336 656L337 656L336 653M633 653L632 656L633 653z"/>
<path style="fill:#eba824; stroke:none;" d="M265.333 655.667L265.667 656.333L265.333 655.667z"/>
<path style="fill:#b8415e; stroke:none;" d="M626 655L627 656L626 655z"/>
<path style="fill:#eba824; stroke:none;" d="M688 664C687.646 667.741 691.14 673.969 695 670C702.786 670.766 705.705 658.676 697.956 655.934C693.719 654.434 683.176 659.331 688 664M336 656L337 657L336 656z"/>
<path style="fill:#b8415e; stroke:none;" d="M630 656L631 657L630 656z"/>
<path style="fill:#0dbdbb; stroke:none;" d="M330 657L331 658L330 657z"/>
<path style="fill:#b8415e; stroke:none;" d="M335 658L336 659L335 658M690 658L691 659L690 658z"/>
<path style="fill:#0dbdbb; stroke:none;" d="M334 659L335 660L334 659z"/>
<path style="fill:#b8415e; stroke:none;" d="M688 659L689 660L688 659M329 660L330 661L329 660M333 660L334 661L333 660M701 660L702 661L701 660M269 661L270 662L269 661z"/>
<path style="fill:#eba824; stroke:none;" d="M332 661L333 662L332 661z"/>
<path style="fill:#b8415e; stroke:none;" d="M687 661L688 662L687 661z"/>
<path style="fill:#eba824; stroke:none;" d="M744.005 661.742C730.292 667.067 739.719 687.559 752.96 681.99C766.569 676.266 757.458 656.518 744.005 661.742z"/>
<path style="fill:#b8415e; stroke:none;" d="M687 664L688 665L687 664M690 668L691 669L690 668M698 668L699 669L698 668M696 669L697 670L696 669M695 670L696 671L695 670M742 679L744 681L742 679M308 692L309 693L308 692z"/>
<path style="fill:#352fbf; stroke:none;" d="M309.014 692.877C300.319 693.219 300.083 707.589 309 707.083C317.339 706.61 318.137 692.519 309.014 692.877z"/>
<path style="fill:#b8415e; stroke:none;" d="M310 692L311 693L310 692z"/>
<path style="fill:#eba824; stroke:none;" d="M311 692L312 693L311 692M305 693L306 694L305 693M313 693L314 694L313 693M314 694L315 695L314 694z"/>
<path style="fill:#b8415e; stroke:none;" d="M303 695L304 696L303 695z"/>
<path style="fill:#0dbdbb; stroke:none;" d="M684 695.478C646.559 701.056 606.957 697.055 569 697.985C560.181 698.201 534.047 693.084 534.214 707.001C534.376 720.559 559.244 716 568 716L660 716C669.713 716 680.998 721.49 690 719.656C705.598 716.477 698.887 693.261 684 695.478M302 696L303 697L302 696M351.015 697.573C342.781 700.011 343.134 713.113 351.04 715.772C358.28 718.206 365.662 716.091 373 716.004C387.986 715.826 403.014 715.826 418 716.004C424.85 716.085 434.518 719.314 440.906 715.821C448.444 711.699 448.132 698.917 438.996 697.228C420.919 693.888 399.402 697 381 697C371.834 697 359.837 694.96 351.015 697.573z"/>
<path style="fill:#eba824; stroke:none;" d="M316.333 698.667L316.667 699.333L316.333 698.667z"/>
<path style="fill:#0dbdbb; stroke:none;" d="M315 702L316 703L315 702M302 703L303 704L302 703M314 704L315 705L314 704z"/>
<path style="fill:#eba824; stroke:none;" d="M303 705L304 706L303 705z"/>
<path style="fill:#0dbdbb; stroke:none;" d="M313 705L314 706L313 705z"/>
<path style="fill:#eba824; stroke:none;" d="M304 706L305 707L304 706z"/>
<path style="fill:#0dbdbb; stroke:none;" d="M312 706L313 707L312 706z"/>
<path style="fill:#eba824; stroke:none;" d="M306.667 707.333L307.333 707.667L306.667 707.333z"/>
<path style="fill:#b8415e; stroke:none;" d="M308 707L309 708L308 707z"/>
<path style="fill:#0dbdbb; stroke:none;" d="M310 707L311 708L310 707M412 761C412.588 764.525 421.811 763 425 763L466 763L607 763L640 763C645.352 763 650.896 763.648 654.583 758.935C659.005 753.284 656.178 745.326 649 744.157C632.566 741.483 613.665 744 597 744L459 744L422 744C417.381 744 410.228 742.684 406.083 745.065C398.741 749.283 403.7 762.403 412 761z"/>
<path style="fill:#352fbf; stroke:none;" d="M410.667 761.333L411.333 761.667L410.667 761.333z"/>
<path style="fill:#eba824; stroke:none;" d="M0 993L0 1014L6 1013L6 1024C9.20068 1016.37 10.2304 993.336 0 993z"/>
<path style="fill:#b8415e; stroke:none;" d="M5.33333 1004.67L5.66667 1005.33L5.33333 1004.67M5 1007L6 1008L5 1007z"/>
<path style="fill:#eba824; stroke:none;" d="M20 1008L21 1009L20 1008z"/>
<path style="fill:#b8415e; stroke:none;" d="M2 1013L0 1024L2 1024L2 1014L3 1014L3 1024L5 1024L6 1014L2 1013z"/>
<path style="fill:#352fbf; stroke:none;" d="M0.333333 1014.67L0.666667 1015.33L0.333333 1014.67M2 1014L2 1024L3 1024L2 1014M4 1014L5 1024L6 1024L4 1014z"/>
</svg>
